<svg xmlns="http://www.w3.org/2000/svg" width="1024" height="1024" viewBox="0 0 1024 1024"><g fill="rgb(0, 0, 0)"><rect width="1024" height="1024"/></g><g fill="rgb(254, 254, 254)"><path fill-rule="evenodd" d="M697 203l8 8c15.28 42.24 20.18 100.19-0.64 141.36c-4.76 9.4-7.62 19.29-14.36 27.64c3.7 13.22 12.98 32.63 21.77 43.23c4.39 5.31 17.49 14.38 19.89 18.11c4.85 7.57 7.32 14.57 2.34 22.66c1.27 5.73 2.94 10.83 0.66 16.66c-4.4 11.24-43.07 40.54-54.66 44.34c-9.91 11.24-31.56 18.25-45 25c2.71 10.82 7.55 21.85 11.66 32.34c2.74 7.01 5.01 15.2 6.45 22.55c3.01 15.37 8.69 28.85 9.89 45.11c29.6 6.55 41.63 33.46 39.98 61.98c-0.42 7.35-2.59 14.69-4.09 21.91c-2.61 12.56-11.05 23.4-14.89 35.11c11.01 9.01 17.75 23.31 14.89 37.89c-0.9 4.61-3.31 8.74-4.89 13.11l-9 9c-20.42 7.39-32.34 7-54 7c-3.77 4.61-7.64 4.92-12.64 7.36c-19.06 9.31-54.64 7.69-73.02-3.7c-6.03-3.75-9.99-9.28-14.34-14.66c-4.92 1.07-9.07 0.75-14 0c-4.37 5.41-9.5 9.9-14 15c-4.18 1.17-7.88 4.01-12.11 4.89c-19.37 4.02-37.27 5.05-56.78 1c-4.89-1.01-9.43-4.2-14.11-5.89l-3-4c-21.27 0-32 0.23-52-7c-5.03-5.7-11.29-10.94-12.89-19.11c-0.91-4.64-0.98-9.35-2.11-13.89c-15.92-4.06-33.35-8.47-47.66-17.34c-42.22-26.19-70.41-68.26-73.32-118.68c-0.74-12.68-1.3-31.68 1.09-43.87c4.91-25 8.83-55.74-5.45-78.77c-5.24-8.43-14.16-14.2-21.66-20.34c-11.94-33 29.3-36 52-36c29.8 0 64.93 10.46 88.23 29.77c6.86 5.68 13.34 12.15 19 19c3.34 4.02 5.88 8.8 9.77 12.23c3.94 10.72 11.25 20.52 15.66 31.34c3.37 8.3 3.64 20.12 9.34 26.66c4.74-16.61 12.32-32.28 17-49c-3.98-3.47-9.62-5.29-14.66-7.34c-8.97-3.65-25.05-11.53-31.34-18.66c-14.72-4.83-40.07-28.42-53-39c-2.67-7.38-3.72-12.6-1-20c-4.27-8.62-3.11-15.4 0-24c5.5-4.44 11.79-8.14 16.75-13.25c12.24-12.63 16.68-29.68 24.25-44.75c-1.66-6.65-6.54-12.14-9.67-18.33c-4.43-8.75-7.51-17.78-10.99-27.01c-2.35-6.26-3.18-13.08-4.45-19.55c-7.27-37.05-2.67-73.78 10.11-109.11l5-5c7.48-2.79 12.59-4.47 20.98-3.98c15.01 0.86 58 20.62 68.02 31.98c14.52 5.34 32.71 27.34 43 39c8.55-1.29 17.39-3.49 26.02-3.98c21.73-1.26 42.91 0.8 63.98 3.98c25.75-31.87 55.57-51.44 93.66-66.34c7.75-3.04 16.97-6.13 25.32-5.64c3.62 0.2 7.54 2.01 11.02 2.98Zm-227 86c-15-27.48-54.06-53.72-82.66-65.34c-10.03-4.08-23.93-10.82-34.34-5.66c-8.69 24.04-12.49 48.59-11.02 74.02c0.21 3.53-0.55 7.39 0.13 10.87c1.96 9.99 3.92 19.96 6 30c2.43 11.72 11.08 21.86 13.89 33.11c3.96 3.49 6.04 8.51 10 12c-1.73 9.59-13.87 40.7-21 47c-3.04 9.26-11.3 16.05-18.77 22.23c-2.2 1.83-4.49 2.3-5.87 5.13c-0.69 1.4-0.24 3.15-0.36 4.64c3.39 2.74 7.14 4.76 10 8c-4.03 3.3-7.4 6.21-9 11c11.2 9.16 22.65 18.02 33.77 27.23c5.18 4.3 11.76 6.71 16.23 11.77c6.28 2.06 12.55 6.06 18.34 9.66c11.5 7.13 25.71 12.72 38.66 16.34c-1.34 8.64-6.33 17.16-9.66 25.34c-6.28 15.47-12.84 32.43-16.23 48.77c-1.12 5.38-2.95 10.63-4 16c-1.8 9.17-1.06 21.31-6.11 28.89c-16.43-24.65-13.45-54.86-24.34-81.66c-26.42-64.98-89.46-95.16-156.66-76.34c-0.62 2.49-0.94 4.34-1 7c26.05 14.22 35.61 45.9 33.98 73.98c-0.91 15.75-5.05 31.31-5.96 47.04c-0.53 9.12-0.53 18.84 0 27.96c0.91 15.74 5.36 32.01 11.32 46.68c3.17 7.79 8.86 14.71 11.66 22.34c4.75 4.19 7.81 10.17 12.25 14.75c12.62 13.02 28.16 24.02 45.09 30.91c8.57 3.48 17.74 6.46 26.77 8.23c6.36 1.25 14.87 0.81 19.89 4.11c-4.74 9.43-5.63 17.11-2 27l4 4c17.86 6.46 31.65 4 50 4c10.12 18.53 59.65 17.32 74.23 5.23c4.84-4 6.69-9.57 8.77-15.23h36c8.7 30.53 53.67 26.44 77 18c2.43-2.97 4.86-5.78 7-9c17.94 4.4 35.97 2.16 53-4c6.62-12.13 5.59-17.31 1-30c-6.35-5.19-11.8-8.53-18-13c3.22-5.9 7.91-13.51 13-18c1.42-5.69 4.42-10.84 6.66-16.34c6.21-15.28 7.54-31.59 4.23-47.55c-0.9-4.36-3.4-8.06-4.89-12.11l-10-10c-7.04-2.55-13.92-3.23-21-5c-2.58-10.32-3.04-21.37-5.11-31.89c-5.87-29.94-17.19-60.84-30.89-88.11c5.74-5 14.85-6.04 21.64-9.36c4.34-2.12 8.66-4.76 13.03-6.97c16.73-8.46 30.9-19.54 46.67-29.33c4.98-3.08 21.94-15.86 24.3-20.7c0.69-1.4 0.24-3.15 0.36-4.64c-3.12-2.55-5.95-4.93-8-8c4.62-4.08 8.48-5.34 9-12c-7.31-5.98-17.61-11.79-21-21c-10.02-8.2-23.79-41.16-27-54c3.96-3.49 6.04-8.51 10-12c2.5-10 10.87-20.37 12.89-30.11c2.72-13.11 6.32-26.51 7.09-39.91c1.24-21.43-1.61-59.52-12.98-77.98c-12.64-3.1-24.8 2.96-36.34 7.66c-25.68 10.44-51.08 27.6-68.89 49.11c-4.09 4.92-7.61 10.52-11.77 15.23c-16.94-3.67-33.65-6.12-51.02-6.98c-2.11-0.11-3.86 0.96-5.98 0.98c-4.43 0.03-9.55-0.74-13.89 0.11c-10.6 2.08-21.41 4.27-32.11 5.89Zm-100-45c14.38 3.18 42.37 26.12 47 40c-9.04-1.37-15.96-2.53-25 0l-3 3c0.4 5.38 1.97 8.45 6 12c-1.08 4.25-1.95 4.79-6 7c0.13 5.69 1.32 7.84 6 11c-2.55 6.95-7.43 13.89-3.64 21.64c1.33 2.73 2.71 4.51 3.64 7.36c-2.93 2.58-4.81 5.71-7 9l-6-6c-3.24-8.81-8.17-17.44-11.66-26.34c-7.71-19.73-9.83-59.5-0.34-78.66Zm304 0c12.24 33.31 5.74 82.86-17 111c-2.76-3.12-5.24-6.88-8-10c6.19-12.5 4.98-15.93-1-28c4.6-3.07 6.14-4.47 7-10c-2.38-1.95-4.77-4.03-7-6c1.45-2.66 2.68-4.1 5-6c0.76-3.1 0.99-5.77 1-9c-10.81-7.21-18.24-1.67-29-2c11.08-13.72 30.21-38.54 49-40Zm-249 50c3.31 4.97 6.09 10.17 7 16c-5.56 3.71-11.1 7.52-16.23 11.77c-6.18 5.11-10.83 12.49-17.77 16.23c-6.07-9.22 2.44-14.35 4-23l-6-4c2.42-4.82 3.9-4.21 9-7c-1.2-6.61-6.8-8.06-10-14c10.4-6.93 19.62 1.09 30 4Zm224-5c-2.79 5.19-8.21 8.81-11 14c2.96 2.58 6.61 3.74 10 6c-1.91 2.86-3.89 3.93-7 6c2.54 10.15 9.48 10.8 5 23c-7.33-3.94-12.25-11.84-18.77-17.23c-4.74-3.93-10.09-7.34-15.23-10.77c0.82-5.31 3.17-9.94 5-15c11.44-5.74 19.28-9.18 32-6Zm-179 121c-22.66-18.31-45.9 12.06-33 33c-2.46-0.54-4.6-1.12-7-2c-19.32-22.18 20.5-70.38 40-31Zm133-12l8 8c4.59 12.68 7.94 19.17 4 33c-3.07 2.67-5.96 3.87-10 5c8.84-14.35 2.26-25.68-7-37c-9.24-3.34-15.07-3.49-24 1c1.4-4.19 4.12-6.48 7-10c8.14-2.94 13.86-2.94 22 0Zm-14 17c5.87 0.91 7.36 2.23 9 8l-4 4h-6l-3-4c0.84-3.37 1.77-5.24 4-8Zm-135 1l3 3c-0.19 2.52-0.4 4.56-1 7c-2.8 0.7-5.01 0.99-8 1l-3-3c0.54-2.46 1.12-4.6 2-7c2.49-0.62 4.34-0.94 7-1Zm40 64l2 8c7.48 6.12 13.81 10.62 23 14v8l-5 5c-8.38 3.03-14.35 3.42-23 1l-8-8c-0.32 10.54 13.82 18.87 23.89 16.89c6.12-1.2 11.43-5.03 17.11-6.89c9 10.2 20.03 6.97 31 3c3.84-4.7 7.57-8.21 7-14c-2.27 2.57-4.76 5.26-7 8c-11.39 4.12-14.94 3-26-1l-3-3c0-3.62 0.15-6.58 1-10c8.17-3 13.43-7.63 20-13l3-8c8.36-2.09 17.34-2.43 25.89-4.11c28.32-5.56 48.78-16.89 79.11-16.89c4.41 0 9.56-0.74 13.89 0.11c8.17 1.6 18.14 2.4 25.75 6.25c4.98 2.52 10.14 5.72 15.36 7.64c-0.39 1.17 0.11 2.14-0.77 3.23c-3.94 4.91-23.75 18.31-29.89 22.11c-12.34 7.66-24.27 16.05-37.34 22.66c-10.38 5.25-21.58 9.28-32.34 13.66c-15.42 6.26-32.34 8.71-47.66 14.34c6.85 1.71 14.22-0.7 21 1c2.33 8.32 6.4 16.32 9.66 24.34c2.97 7.31 3.96 14.97 5.45 22.55c1.13 5.76 2.28 10.56 0.89 16.11c-1.91-1.03-4.09-1.97-6-3c-4.77 5.47-3.69 15.66-5.11 22.89c-1.3 6.6-4.64 14.97-8.23 20.77c-2.06 3.31-4.31 5.68-5.66 9.34c-3.18-1.6-3.5-2.13-6-5c-3.17 1.73-4.35 3.44-6.34 6.66c-5.73 9.22-15.84 13.61-22.66 21.34c-4.51 1.66-9 4.33-13 7c-5.05-0.78-9.19-3.26-14-5c-3.83-4.34-9.7-7.01-14.23-10.77c-6.43-5.32-11.22-12.4-15.77-19.23c-3.93 1.31-3.69 1.07-5 5c-15.98-5.33-17.62-39.5-21-53c-2.85 0.71-4.5 1.33-7 3c-5.46-21.86 10.32-43.71 16-64c6.21-0.64 12.92 1.52 19 0c-7.78-4.73-18.08-5.12-26.66-8.34c-15.04-5.66-30.07-10.93-45-17c-15.39-6.26-39.86-20.89-52.57-31.43c-6.72-5.56-14.13-12.06-21.77-16.23c6.58-12.23 24.71-13.72 36.89-16.11c32.85-6.45 55.38 7.81 85.22 14c11.21 2.33 22.93 3.37 33.89 6.11Zm-131 95c-2.91 0.29-4.91-0.23-8-1c-1.6 6.4-1 13.31-1 20c-6.56-0.99-10.92-4.77-17-7c-3.65-4.14-7.49-6.57-13-7c-1.2 4.84-0.08 9.18 0.89 14.11c1.49 7.58-0.7 17.6-4.89 23.89l-9-3c-4.4-4.99-17.52-18.99-23-21c-6.09 9.14-6.09 21.09-11 31c-6.76-3.64-12.27-9.57-15-17c-1.95-0.96-3.99-1.9-6-3c4.69-31.02 3.41-76.39-26-96c7.08-6.17 31.75-4.95 41.11-3.11c7.18 1.41 14.56 1.82 21.55 4.45c33.49 12.61 54.33 32.79 70.34 64.66Z"/></g><g fill="rgb(239, 135, 68)"><path fill-rule="evenodd" d="M422 253c10.48 5.19 21.61 15.56 29.23 24.77c4.15 5 7.95 10.97 12.77 15.23c-1.91 3.5-4.97 5.33-8 8c8.02 0.24 17.65-4.23 26.11-5.89c16.9-3.32 34.39-5.11 51.87-4.09c9.25 0.53 18.81 2.3 27.91 4.09c8.33 1.63 18.1 6.72 26.11 4.89l-7-5c5.13-15.65 26.36-31.66 39-42c2.38 2.7 4.56 6.08 6 10c2.34 1.42 3.33 1.52 6 2c-9.96 14.95-22.01 28.16-27 46c23.84 15.89 45.97 39.42 58.64 65.36c1.71 3.5 2.16 8.49 3.7 12.3c9.35 22.98 20.24 50.06 41.66 64.34c-0.4 0.79 0.2 1.73-0.45 2.55c-2.24 2.78-8.55 3.97-11.55 5.45c-23.36-8.45-47.59-9.66-71.89-4.89c-6.41 1.26-12.6 3.67-19 5c-3.83 0.79-7.39 2.99-11.22 3.78c-15.43 3.2-30.1 8.94-45.89 10.11c-10.82-16.23-31.86-12.52-48-8l-6 7c-39.42 0-76.08-27.97-116.11-20.11c-8.83 1.73-17.72 2.06-25.89 6.11c-5.16-0.78-9.94-2.58-15-4c1.92-5.75 8.17-8.85 12.23-13.77c4.28-5.15 8.73-11.23 11.77-17.23c6.69-13.22 12.11-26.7 17.66-40.34c1.92-4.74 1.97-9.94 4.68-14.32c10.13-16.32 21.4-33.12 36.43-45.57c5.85-4.86 12.31-8.99 18.23-13.77c-3.88-13.85-15.91-34.93-27-44c5.43-2.96 8.14-8.32 10-14Zm52 194c2.93-8.09 4-15.32 4-24c0-5.47-1.19-11.42-3.67-16.33c-23.13-45.71-75.79 2.54-47.33 37.33c13.89 5.02 27.94 10.69 43 7l4-4Zm146-7c1.91-5.29 3.78-11.34 3.78-17c0-17.63-14.87-38.78-34.67-34.89c-3.45 0.68-6.84 2.71-10.11 3.89c-2.85 3.48-6.27 6.49-8.66 10.34c-8.87 14.31-7.31 35.21 1.66 48.66c15.53 3.88 29.39-1.72 44-7l4-4Zm-263-147c3.88 5.81 4.55 17.37 6.11 24.89c2.42 11.68 9.9 21.27 13.89 32.11c3.39 2.99 5.61 7.01 9 10c-1.69 4.66-4.23 8.85-7 13c-15.36-12.57-28-54.86-28-74l6-6Zm328 0c3.16 1.7 6.06 3.88 9 6c-1.06 4.9-1.14 9.96-2.11 14.89c-3.95 20.15-12.13 43.52-25.89 59.11c-2.62-3.01-4.41-6.8-7-10c1.37-7.57 8.12-13.3 11.67-20.33c7.7-15.21 13.95-32.62 14.33-49.67Zm-242 251c5.88 0.43 12.62 1.18 17 5c-8.83 17.57-25.2 55.44-16 74l8-2c0.06 20.25 10.71 36.98 23 52c3.8-0.7 4.07-0.51 6-4c5.25 2.86 9.67 9.31 14.25 13.75c5.24 5.07 19.8 14.76 26.86 16.14c11.02 2.16 36.93-20.95 42.89-29.89c1.86 1.24 3.39 2.17 5 4c10.92-5.88 20.37-22.94 22.89-35.11c1.18-5.7 2.1-11.43 4.11-16.89c1.97 0.96 3.96 1.33 6 2c3.43-5.65 3.36-12.73 2.11-19.11c-1.8-9.18-1.96-18.61-5.45-27.55c-3.64-9.28-9.28-18.8-11.66-28.34c5.65-1.61 11.19-3.12 17-4c3.53 5.72 5.8 12.4 8.34 18.66c10.41 25.59 19.25 51.44 24.55 78.45c1.81 9.2 1.89 18.83 4.11 27.89c-4.34 3.51-10.44 7.33-12 12c9.54-2.67 18.02-10.22 29.89-7.89c13.77 2.7 19.11 19.97 19.11 31.89c0 27.44-14.27 49.55-31 70c-10.71 0.24-22.4 4.83-29 13c-5.48-0.85-9.74-4.1-15-6c-1.56-6.23-0.36-13.75 0.89-20.11c1.33-6.79 0.88-13.97 2.22-20.78c3.21-16.34 6.6-32.64 10-49c1.87-9.01 6.78-19.49 5.89-28.11c-13.77 20.66-16.27 47.63-22 71c-11.56-0.04-23.22-1.67-34.98-0.98c-5.29 0.3-10.77 2.19-16.02 2.98c-3.68-6.06-3.74-28.12-6-37c-5.11 13.9-1.88 37.04-1.02 52.02c0.94 16.2 0.02 32.74 0.02 48.98c-11.37 2.84-25.17 1-37 1c-1.75-6.98-1-14.71-1-22c0-11.27-0.63-22.74 0.02-33.98c0.83-14.36 3.45-32.14-0.02-46.02c-5.78 8.78-3.36 26.23-6 37c-10.37-0.23-20.64-3.38-31.02-3.98c-7.03-0.41-14.12 2.68-20.98 0.98c-4.51-18.03-10.11-57.36-22-71c0 8.63 4.15 18.24 5.89 27.11c3.34 17.02 6.67 34.03 10 51c1.27 6.49 0.95 13.3 2.22 19.78c1.31 6.68 2.53 14.53 0.89 21.11c-5.03 1.82-9.45 3.98-13 8c-0.71-9.79-19.18-14.8-28-15c-18.49-22.6-41.79-59.7-26.64-89.64c2-3.96 5.87-6.97 8.64-10.36c15.66-4.38 21.13-0.87 35 6c-1.56-4.67-7.66-8.49-12-12c0-43.25 20.33-85.07 35-125Zm-83 39c2.22 0.34 4.43 0 6.22 1.78c2.18 2.18 5.55 14.99 5.76 18.24c0.78 11.6 5.92 35.71 10.36 46.64c2.06 5.05 5.23 9.5 7.66 14.34c-3.44 2.12-7.2 3.62-11 5l-8 8c-1.71 4.66-4.91 9.09-5.89 14.11c-3.93 20.02 0.36 44.01 11.23 61.55c4.18 6.72 9.22 13.4 12.66 20.34c-15.35 5.64-34.02 0.31-49.09-3.91c-36.58-10.24-64.44-37.69-78.57-72.43c-4.02-9.91-5.43-20.27-7.45-30.55c-2.88-14.68-4.15-37.82 3.11-51.11c9.04 4.93 9.49 14.06 22 16l4-4c2.75-7.6 3.91-17.28 8-24l17 17c5.22 1.89 9.34 3 15 3l4-4c1.81-5.01 3.68-10.67 3.98-16.02c0.27-4.56-0.73-8.79 0.02-12.98c8.31 4.12 15.74 8.99 25 11c4.51-5.58 4-11.02 4-18Z"/></g><g fill="rgb(120, 60, 28)"><path fill-rule="evenodd" d="M422 254c-2.04 4.11-4.39 8.08-7 12c-1.22-0.22-2.46 0.22-3.64-0.36c-1.7-0.83-17.61-15.65-19.36-17.64c-8.78-3.23-15.1-8.97-25-9c-8.78 13.17-11.29 37.81-8 53c-2.37 1.94-4.43 3.62-7 5c-7.82-11.88 2.89-57.34 7-72c11.7-1.2 57.16 18.44 63 29Zm261-30c9.74 11.18 13.56 58.76 10 73c-3.4-1.13-5.12-2.64-8-5c2.08-13.75 1.25-44.08-10-54c-16.1 2.43-31.84 14.59-42 27c-7.56-0.59-9.91-5.95-11-13c16.59-13.4 39.9-24.81 61-28Zm-184 517c0 14.27-1.16 28.84-1.98 43.02c-0.67 11.57 0.95 22-3.02 32.98c-6.47 3.53-11.67 5.89-19 7c-1.55-6.19-0.35-12.76 1-19c-6.61 3.61-7.98 11.73-8 19c-6.81 1.7-15.12 1.69-22 0c-2.82-11.27 3.84-16.48 3-25c-7.58 6.2-9.58 12.61-11 22c-11.97-2.16-8.06-14.55-5-23l8-8l10-4c3.31-13.24-0.97-31.57-3-45c16.23-4.14 34.8-4.62 51 0Zm101 0c-2.25 14.93-4 29.72-4 45c7.94 2.92 12.57 6.74 19 12c2.54 7.02 3.85 12.44 2 20c-2.6 2.1-3.79 2.42-7 3c-0.69-9.29-3.75-16.07-11-22c-0.49 4.99 2.85 9.83 3.89 15.11c0.55 2.79 0.11 6.05 0.11 8.89c-7.18 2.64-14.37 2-22 2c-1.94-7.78-2.32-15.53-9-21c-0.2 6.76 2.79 12.86 1 20c-6.09-0.92-11.24-2.92-17-5l-3-3c-4.73-16.88-3-35.41-3-53c0-7.39-1-14.51-1-22c16.07-4.58 34.89-4.03 51 0Zm-170 44c0.23 2.28 0.44 3.4-0.11 5.89c-0.49 2.26-3.43 5.2-4.56 7.44c-2.35 4.64-2.42 9.3-5.33 13.67h-6c-1.4-5.61-0.54-9.5 1-15c-6.12 3.34-7.15 9.52-9 16c-6.82 0-12.53-0.16-19-2c0.02-7.51 2.5-12.59 6-19c-3.35 0.3-5.03 2.57-8 5c-1.46 4.04-3.07 7.8-4 12c-11.89-3.96-4.47-17.22 1-24c2.88-1.04 6.11-3.3 9.11-3.89c13.7-2.69 25.84 0.17 38.89 3.89Zm237-1l6 6c2.45 6.77 5.4 14.96-2 19c-2.89-3.28-3.68-6.27-5-11c-2.71-2.22-5.04-4.4-8-6c2.38 6.58 4.84 11.81 5 19c-6.7 1.67-12.97 2-20 2c-1.69-6.63-3.47-11.86-8-17c-0.17 4.71 0.95 10.16 2 15c-3.7 0.92-6.23 0.82-10 0c-2.27-7.95-7.06-15.24-9-23c12.1-10.55 34.99-9.07 49-4Z"/></g><g fill="rgb(69, 181, 209)"><path fill-rule="evenodd" d="M471 411c1.04 2.83 1.56 5.05 2 8c-3.53-1.9-7.35-4.17-11-6c-5.38 0.81-9.82 2.68-15 4c-3.54 9.64-4.54 17.83-3 28c-20.51-3.18-9.87-42.42 14.98-40.98c4.75 0.27 8.58 4.16 12.02 6.98Zm127-4c10.29 12.58 12.56 18.57 9 35c-2.61 2.11-4.77 3.09-8 4c-0.44-4.24 1.25-8.33 0.98-12.98c-0.27-4.8-2.25-10.19-2.98-15.02c-10.61-7.08-16.73-3.37-27 0c0.74-4.91 1.87-7.18 5-11c8.78-3.18 14.22-3.18 23 0Z"/></g><g fill="rgb(236, 156, 170)"><path fill-rule="evenodd" d="M539 472l4 4c-0.06 2.89-0.32 5.23-1 8c-19.13 15.65-21.87 15.65-41 0c-0.68-2.77-0.94-5.11-1-8l4-4c11.92-4.31 22.98-3.37 35 0Z"/></g></svg>